<svg id="Шар_1" data-name="Шар 1" xmlns="http://www.w3.org/2000/svg" viewBox="0 0 76.39 80"><defs><style>.cls-1{fill:#ff7878;}</style></defs><path class="cls-1" d="M42,8A4,4,0,0,0,38,11.23L36.7,18.09a32.05,32.05,0,0,0-9,5.17L21.14,21a4,4,0,0,0-4.76,1.78l-6,10.46a4,4,0,0,0,.84,5l5.27,4.59a29.81,29.81,0,0,0,0,10.32l-5.27,4.59a4,4,0,0,0-.84,5l6,10.46A4,4,0,0,0,21.14,75l6.58-2.27a31.78,31.78,0,0,0,9,5.16L38,84.77A4,4,0,0,0,42,88H54A4,4,0,0,0,58,84.77l1.34-6.86a32.05,32.05,0,0,0,9-5.17L74.86,75a4,4,0,0,0,4.76-1.78l6-10.46a4,4,0,0,0-.84-5l-5.27-4.59a29.81,29.81,0,0,0,0-10.32l5.27-4.59a4,4,0,0,0,.84-5l-6-10.46A4,4,0,0,0,74.86,21l-6.58,2.27a31.78,31.78,0,0,0-9-5.16L58,11.23A4,4,0,0,0,54,8Zm6,24A16,16,0,1,1,32,48,16,16,0,0,1,48,32Z" transform="translate(-9.81 -8)"/></svg>